# Blender v2.79 (sub 0) OBJ File: 'amethyst.blend'
# www.blender.org
mtllib amethyst.mtl
o Amethyst_Cylinder
v 0.000000 0.560000 -0.300000
v -0.110000 0.809474 -0.080000
v 0.110000 0.809474 -0.080000
v -0.000000 0.560000 0.300000
v 0.110000 0.809474 0.080000
v -0.110000 0.809474 0.080000
v 0.484974 -0.280000 -0.300000
v 0.756025 -0.309474 -0.080000
v 0.646025 -0.500000 -0.080000
v 0.484974 -0.280000 0.300000
v 0.646025 -0.500000 0.080000
v 0.756025 -0.309474 0.080000
v -0.484974 -0.280000 -0.300000
v -0.646025 -0.500000 -0.080000
v -0.756025 -0.309474 -0.080000
v -0.484974 -0.280000 0.300000
v -0.756025 -0.309474 0.080000
v -0.646025 -0.500000 0.080000
vn -0.8660 0.5000 0.0000
vn -0.0000 -1.0000 0.0000
vn -0.0000 -0.0000 1.0000
vn 0.8660 0.5000 0.0000
vn 0.0000 0.6614 -0.7500
vn -0.0000 0.6614 0.7500
vn 0.5728 -0.3307 -0.7500
vn 0.5728 -0.3307 0.7500
vn -0.5728 -0.3307 -0.7500
vn -0.5728 -0.3307 0.7500
vn 0.6124 0.3536 -0.7071
vn 0.6124 0.3536 0.7071
vn 0.0000 1.0000 0.0000
vn 0.8660 -0.5000 -0.0000
vn -0.0000 -0.7071 -0.7071
vn -0.0000 -0.7071 0.7071
vn -0.8660 -0.5000 0.0000
vn -0.6124 0.3536 -0.7071
vn -0.6124 0.3536 0.7071
vn -0.0000 0.0000 -1.0000
usemtl AmethystMaterial
s off
f 15//1 17//1 6//1 2//1
f 9//2 11//2 18//2 14//2
f 10//3 4//3 16//3
f 3//4 5//4 12//4 8//4
f 1//5 2//5 3//5
f 4//6 5//6 6//6
f 7//7 8//7 9//7
f 10//8 11//8 12//8
f 13//9 14//9 15//9
f 16//10 17//10 18//10
f 3//11 8//11 7//11 1//11
f 12//12 5//12 4//12 10//12
f 2//13 6//13 5//13 3//13
f 11//14 9//14 8//14 12//14
f 9//15 14//15 13//15 7//15
f 18//16 11//16 10//16 16//16
f 17//17 15//17 14//17 18//17
f 15//18 2//18 1//18 13//18
f 6//19 17//19 16//19 4//19
f 1//20 7//20 13//20
